<svg id="Layer_1" data-name="Layer 1" xmlns="http://www.w3.org/2000/svg" viewBox="0 0 1094.49 1937.72">
  <defs>
    <style>
      .cls-1, .cls-10, .cls-12, .cls-14, .cls-16, .cls-18, .cls-20, .cls-4, .cls-6, .cls-8 {
        fill: #E3C4C1;
      }

      .cls-1, .cls-10, .cls-11, .cls-12, .cls-13, .cls-14, .cls-15, .cls-16, .cls-17, .cls-18, .cls-19, .cls-20, .cls-21, .cls-26, .cls-3, .cls-4, .cls-5, .cls-6, .cls-7, .cls-8, .cls-9 {
        stroke: #060305;
      }

      .cls-1, .cls-10, .cls-11, .cls-12, .cls-13, .cls-14, .cls-15, .cls-16, .cls-17, .cls-18, .cls-19, .cls-2, .cls-20, .cls-21, .cls-22, .cls-25, .cls-26, .cls-3, .cls-4, .cls-5, .cls-6, .cls-7, .cls-8, .cls-9 {
        stroke-miterlimit: 10;
      }

      .cls-1 {
        stroke-width: 6.2px;
      }

      .cls-2 {
        fill: none;
      }

      .cls-11, .cls-13, .cls-15, .cls-17, .cls-19, .cls-21, .cls-22, .cls-23, .cls-26, .cls-3, .cls-5, .cls-7, .cls-9 {
        fill: none;
      }

      .cls-3 {
        stroke-width: 4.13px;
      }

      .cls-4 {
        stroke-width: 7.18px;
      }

      .cls-5 {
        stroke-width: 5.01px;
      }

      .cls-6 {
        stroke-width: 7.03px;
      }

      .cls-7 {
        stroke-width: 5.57px;
      }

      .cls-8 {
        stroke-width: 7px;
      }

      .cls-9 {
        stroke-width: 5.04px;
      }

      .cls-10 {
        stroke-width: 6.97px;
      }

      .cls-11 {
        stroke-width: 5.95px;
      }

      .cls-12 {
        stroke-width: 7.01px;
      }

      .cls-13 {
        stroke-width: 5.85px;
      }

      .cls-14 {
        stroke-width: 6.99px;
      }

      .cls-15 {
        stroke-width: 5.23px;
      }

      .cls-16 {
        stroke-width: 7.01px;
      }

      .cls-17 {
        stroke-width: 6.63px;
      }

      .cls-18 {
        stroke-width: 7.05px;
      }

      .cls-19 {
        stroke-width: 6.53px;
      }

      .cls-20 {
        stroke-width: 7.51px;
      }

      .cls-21 {
        stroke-width: 5.87px;
      }

      .cls-22, .cls-25 {
        stroke: #000;
      }

      .cls-22 {
        stroke-width: 5px;
      }

      .cls-24 {
        fill: #1d1d1d;
      }

      .cls-25 {
        stroke-width: 5.13px;
      }

      .cls-26 {
        stroke-width: 2px;
      }

      .cls-27 {
        font-size: 48px;
        font-family: AvenirNextCondensed-Regular, Avenir Next Condensed;
      }

      .cls-28 {
        letter-spacing: -0.01em;
      }

      .cls-29 {
        letter-spacing: -0.02em;
      }
         .cls-5 {
        fill: none;
      }

      .cls-5 {
        stroke: #020202;
        stroke-width: 6.2px;
      }

      .cls-5 {
        stroke-miterlimit: 10;
      }

      .cls-6 {
        fill: #1f1f1f;
      }

    </style>
  </defs>
  <title>timeline</title>
  <g id="timeline">
    <g id="emne-1">
      <path id="info-box" data-name="info-box" class="HTML_placeholder cls-1 hidden" d="M614.27,178.72h437.8v82.74c0,6.64-11.89,12.07-26.53,12.07H640.8c-14.64,0-26.53-5.43-26.53-12.07Z"/>
      <path id="overskrift" class="HTML_placeholder cls-2" d="M1036.71,120.22H633.6c-8.55,0-15.54,4-15.54,8.9v22.1c0,5.5,7.86,10,17.46,10h399.09c9.6,0,17.46-4.5,17.46-10v-22.1C1052.07,124.22,1045.26,120.22,1036.71,120.22Z"/>
      <line class="cls-3" x1="348.97" y1="165.32" x2="483.97" y2="165.32"/>

    <circle class="cls-5" cx="264.12" cy="164.05" r="46.83"/>
    <polygon id="nummer1" data-name="nummer1" class="HTML_placeholder cls-6" points="243.71 163.96 233.4 153.65 245.12 153.65 274.12 153.65 277.38 153.65 277.38 146.6 294.74 163.96 277.38 181.32 277.38 174.27 274.12 174.27 245.12 174.27 233.4 174.27 243.71 163.96"/>

    </g>
    <g id="emne-2">
      <path id="info-box" data-name="info-box" class="HTML_placeholder cls-1 hidden" d="M46.4,354.12H482.86v82.31c-.13,6.62-11.92,11.94-26.48,11.94H72.75c-14.56,0-26.48-5.39-26.48-12h0V354.12Z"/>
      <path id="overskrift" data-name="overskrift" class="HTML_placeholder cls-2" d="M61.76,294.82H468c8.62,0,15.66,4,15.66,8.9v22.1c0,5.5-7.92,10-17.59,10H63.86c-9.68,0-17.6-4.5-17.6-10v-22.1C46.1,298.72,53.13,294.82,61.76,294.82Z"/>
      <line class="cls-3" x1="748.57" y1="339.22" x2="614.17" y2="339.22"/>
    </g>
    <g id="emne-3">
      <path id="info-box" data-name="info-box" class="HTML_placeholder cls-1 hidden" d="M614.27,529.62h437.3V611c0,6.53-11.91,11.87-26.45,11.87H640.72c-14.67,0-26.45-5.34-26.45-11.87Z"/>
      <path id="overskrift" data-name="overskrift" class="HTML_placeholder cls-2" d="M633.55,468.22h403c8.55,0,15.53,4,15.53,8.9h0v22.1c0,5.5-7.85,10-17.45,10H635.47c-9.6,0-17.46-4.5-17.46-10v-22.1C618,472.12,625,468.22,633.55,468.22Z"/>
      <line class="cls-7" x1="348.77" y1="517.02" x2="482.87" y2="517.02"/>
    </g>
    <g id="emne-4">
      <path id="info-box" data-name="info-box" class="HTML_placeholder cls-1 hidden" d="M45.07,704.82H483.62V786.2c0,6.62-11.89,12-26.41,12H71.48c-14.65,0-26.41-5.35-26.41-12h0Z"/>
      <path id="overskrift" data-name="overskrift" class="HTML_placeholder cls-2" d="M60.5,641.67H467.92c8.64,0,15.7,4,15.7,8.9v22.1c0,5.5-7.94,10-17.64,10H62.62c-9.71,0-17.65-4.5-17.65-10v-22.1C44.86,645.57,51.86,641.67,60.5,641.67Z"/>
      <line class="cls-9" x1="749.12" y1="689.22" x2="614.12" y2="689.22"/>
    </g>
    <g id="emne-5">
      <path id="info-box" data-name="info-box" class="HTML_placeholder cls-1 hidden" d="M614.27,877.88h437.3v82.84c0,6.75-11.82,12.19-26.4,12.19H640.67c-14.58,0-26.4-5.44-26.4-12.19h0Z"/>
      <path id="overskrift" data-name="overskrift" class="HTML_placeholder cls-2" d="M633.53,817.17h402.52c8.55,0,15.52,4,15.52,8.9h0v22.1c0,5.5-7.84,10-17.43,10H635.45c-9.59,0-17.44-4.5-17.44-10v-22c0-4.9,7-8.9,15.52-8.9Z"/>
      <line class="cls-11" x1="349.57" y1="864.92" x2="483.07" y2="864.92"/>
    </g>
    <g id="emne-6">
      <path id="info-box" data-name="info-box" class="HTML_placeholder cls-1 hidden" d="M45.37,1056.62h437.7v80c0,6.51-11.84,11.76-26.42,11.76H71.79c-14.58,0-26.42-5.25-26.42-11.76h0Z"/>
      <path id="overskrift" data-name="overskrift" class="HTML_placeholder cls-2" d="M60.67,992.12H468c8.64,0,15.7,4,15.7,8.9v22.1c0,5.5-7.94,10-17.64,10H62.61c-9.7,0-17.64-4.5-17.64-10V1001C45,996.12,52,992.12,60.67,992.12Z"/>
      <line class="cls-13" x1="745.57" y1="1039.22" x2="614.27" y2="1039.22"/>
    </g>
    <g id="emne-7">
      <path id="info-box" data-name="info-box" class="HTML_placeholder cls-1 hidden" d="M613.86,1231.32h437.67v80c0,6.51-11.77,11.76-26.42,11.76h-385c-14.53,0-26.42-5.25-26.42-11.76h0v-80Z"/>
      <path id="overskrift" data-name="overskrift" class="HTML_placeholder cls-2" d="M629.44,1170.22h406.42c8.63,0,15.67,4,15.67,8.9h0v22.1c0,5.5-7.92,10-17.6,10H631.37c-9.68,0-17.6-4.5-17.6-10v-22.1C613.77,1174.22,620.77,1170.22,629.44,1170.22Z"/>
      <line class="cls-15" x1="351.77" y1="1214.32" x2="483.67" y2="1214.32"/>
    </g>
    <g id="emne-8">
      <path id="info-box" data-name="info-box" class="HTML_placeholder cls-1 hidden" d="M46.09,1408.32H483.67v78.25c0,6.36-11.71,11.5-26.28,11.5h-385c-14.58,0-26.41-5.14-26.41-11.5h0v-78.25Z"/>
      <path id="overskrift" data-name="overskrift" class="HTML_placeholder cls-2" d="M60.6,1345.22H468c8.65,0,15.71,4,15.71,8.9v22.1c0,5.5-7.94,10-17.65,10H62.72c-9.7,0-17.65-4.5-17.65-10v-22.1C44.86,1349.22,52,1345.22,60.6,1345.22Z"/>
      <line class="cls-17" x1="749.47" y1="1389.22" x2="613.77" y2="1389.22"/>
    </g>
    <g id="emne-9">
      <path id="info-box" data-name="info-box" class="HTML_placeholder cls-1 hidden" d="M615.19,1580.22h436.38v81.33c0,6.63-11.74,12-26.35,12H641.42c-14.49,0-26.35-5.35-26.35-12h0v-81.33Z"/>
      <path id="overskrift" data-name="overskrift" class="HTML_placeholder cls-2" d="M633.53,1519.22h402.52c8.55,0,15.52,4,15.52,8.9v22.1c0,5.5-7.84,10-17.43,10H635.45c-9.59,0-17.44-4.5-17.44-10v-22.1C618,1523.12,625,1519.22,633.53,1519.22Z"/>
      <line class="cls-19" x1="349.37" y1="1564.52" x2="483.67" y2="1564.52"/>
    </g>
    <g id="emne-10">
      <path id="info-box" data-name="info-box" class="HTML_placeholder cls-1 hidden" d="M46.31,1755.88H482.77v80.32c0,6.54-11.81,11.82-26.32,11.82H72.63c-14.51,0-26.32-5.28-26.32-11.82h0Z"/>
      <path id="overskrift" data-name="overskrift" class="HTML_placeholder cls-2" d="M60.61,1695.22h409c8.67,0,15.76,4,15.76,8.9v22.1c0,5.5-8,10-17.71,10H62.73c-9.74,0-17.71-4.5-17.71-10v-22.1C45,1699.22,51.93,1695.22,60.61,1695.22Z"/>
      <line class="cls-21" x1="749.17" y1="1740.32" x2="614.24" y2="1740.32"/>
    </g>
    <g id="Bullets">
      <circle class="cls-22" cx="546.97" cy="165.52" r="12.6"/>
      <g>
        <rect class="cls-23" x="570.67" y="153.32" width="12" height="24"/>
        <polygon class="cls-24" points="570.66 153.32 570.66 177.32 582.66 165.32 570.66 153.32"/>
      </g>
      <circle class="cls-22" cx="547.07" cy="515.32" r="12.6"/>
      <g>
        <rect class="cls-23" x="570.77" y="503.02" width="12" height="24"/>
        <polygon class="cls-24" points="570.76 503.01 570.76 527.12 582.76 515.12 570.76 503.01"/>
      </g>
      <circle class="cls-22" cx="546.97" cy="865.12" r="12.6"/>
      <g>
        <rect class="cls-23" x="570.57" y="852.92" width="12" height="24"/>
        <polygon class="cls-24" points="570.57 852.91 570.57 876.91 582.66 864.91 570.57 852.91"/>
      </g>
      <circle class="cls-22" cx="546.97" cy="1214.52" r="12.6"/>
      <g>
        <rect class="cls-23" x="570.67" y="1202.32" width="12" height="24"/>
        <polygon class="cls-24" points="570.66 1202.31 570.66 1226.31 582.66 1214.31 570.66 1202.31"/>
      </g>
      <circle class="cls-22" cx="546.97" cy="1564.52" r="12.6"/>
      <g>
        <rect class="cls-23" x="570.67" y="1552.32" width="12" height="24"/>
        <polygon class="cls-24" points="570.66 1552.31 570.66 1576.31 582.66 1564.31 570.66 1552.31"/>
      </g>
      <circle class="cls-22" cx="547.47" cy="1740.22" r="12.6"/>
      <g>
        <rect class="cls-23" x="514.67" y="1728.32" width="12" height="24"/>
        <polygon class="cls-24" points="526.66 1752.31 526.66 1728.31 514.66 1740.31 526.66 1752.31"/>
      </g>
      <circle class="cls-22" cx="547.47" cy="1389.22" r="12.6"/>
      <g>
        <rect class="cls-23" x="514.67" y="1377.32" width="12" height="24"/>
        <polygon class="cls-24" points="526.66 1401.31 526.66 1377.31 514.66 1389.31 526.66 1401.31"/>
      </g>
      <circle class="cls-22" cx="547.47" cy="1039.22" r="12.6"/>
      <g>
        <rect class="cls-23" x="514.67" y="1027.32" width="12" height="24"/>
        <polygon class="cls-24" points="526.66 1051.31 526.66 1027.31 514.66 1039.31 526.66 1051.31"/>
      </g>
      <circle class="cls-22" cx="547.47" cy="689.22" r="12.6"/>
      <g>
        <rect class="cls-23" x="514.67" y="677.32" width="12" height="24"/>
        <polygon class="cls-24" points="526.66 701.31 526.66 677.31 514.66 689.31 526.66 701.31"/>
      </g>
      <circle class="cls-22" cx="547.47" cy="339.22" r="12.6"/>
      <g>
        <rect class="cls-23" x="514.67" y="327.32" width="12" height="24"/>
        <polygon class="cls-24" points="526.66 351.32 526.66 327.32 514.66 339.32 526.66 351.32"/>
      </g>
    </g>
      <g id="linje">
      <path class="cls-25" d="M547.57,140.72h0a4.06,4.06,0,0,1-4.1-4V18.62a4,4,0,0,1,4-4.1h.08a4,4,0,0,1,4.09,3.89s0,.07,0,.11v118.1A4.22,4.22,0,0,1,547.57,140.72Z"/>
      <path class="cls-25" d="M546.67,315.32h0a4.06,4.06,0,0,1-4.1-4V193.22a4,4,0,0,1,4-4.1h.08a4,4,0,0,1,4.09,3.89s0,.07,0,.11v118.1a4.08,4.08,0,0,1-4,4.1Z"/>
      <path class="cls-25" d="M546.57,490.72h0a4.06,4.06,0,0,1-4.1-4V368.62a4,4,0,0,1,4-4.1h.08a4,4,0,0,1,4.09,3.89s0,.07,0,.11v118.1A4.22,4.22,0,0,1,546.57,490.72Z"/>
      <path class="cls-25" d="M546.37,665.72h0a4.06,4.06,0,0,1-4.1-4V543.62a4,4,0,0,1,4-4.1h.08a4,4,0,0,1,4.09,3.89s0,.07,0,.11v118.1a4.08,4.08,0,0,1-4,4.1Z"/>
      <path class="cls-25" d="M546.57,840.72h0a4.06,4.06,0,0,1-4.1-4V718.62a4,4,0,0,1,4-4.1h.08a4,4,0,0,1,4.09,3.89s0,.07,0,.11v118.1A4.22,4.22,0,0,1,546.57,840.72Z"/>
      <path class="cls-25" d="M546.57,1015.72h0a4.06,4.06,0,0,1-4.1-4V893.62a4,4,0,0,1,4-4.1h.08a4,4,0,0,1,4.09,3.89s0,.07,0,.11v118.09A4.22,4.22,0,0,1,546.57,1015.72Z"/>
      <path class="cls-25" d="M546.57,1190.72h0a4.06,4.06,0,0,1-4.1-4v-118.1a4,4,0,0,1,4-4.1h.08a4,4,0,0,1,4.09,3.89s0,.07,0,.11v118.09A4.22,4.22,0,0,1,546.57,1190.72Z"/>
      <path class="cls-25" d="M546.57,1365.72h0a4.06,4.06,0,0,1-4.1-4v-118.1a4,4,0,0,1,4-4.1h.08a4,4,0,0,1,4.09,3.89s0,.07,0,.11v118.09A4.22,4.22,0,0,1,546.57,1365.72Z"/>
      <path class="cls-25" d="M546.57,1540.72h0a4.06,4.06,0,0,1-4.1-4v-118.1a4,4,0,0,1,4-4.1h.08a4,4,0,0,1,4.09,3.89s0,.07,0,.11v118.09A4.22,4.22,0,0,1,546.57,1540.72Z"/>
      <path class="cls-25" d="M547,1890.52h0a4.06,4.06,0,0,1-4.1-4v-118.1a4,4,0,0,1,4-4.1H547a4.05,4.05,0,0,1,4.1,4h0V1886.4A4.21,4.21,0,0,1,547,1890.52Z"/>
      <path class="cls-25" d="M546.57,1715.72h0a4.06,4.06,0,0,1-4.1-4v-118.1a4,4,0,0,1,4-4.1h.08a4,4,0,0,1,4.09,3.89s0,.07,0,.11v118.09A4.22,4.22,0,0,1,546.57,1715.72Z"/>
      <line class="cls-26" x1="45.07" y1="689.32" x2="482.87" y2="689.32"/>
      <line class="cls-26" x1="614.27" y1="165.52" x2="1052.07" y2="165.52"/>
      <line class="cls-26" x1="46.27" y1="340.02" x2="483.97" y2="340.02"/>
      <line class="cls-26" x1="614.17" y1="513.82" x2="1051.97" y2="513.82"/>
      <line class="cls-26" x1="615.07" y1="1565.22" x2="1052.87" y2="1565.22"/>
      <line class="cls-26" x1="47.67" y1="1740.02" x2="485.37" y2="1740.02"/>
      <path class="cls-26" d="M525.86,134.47a35.67,35.67,0,0,0,.6,62.1"/>
      <path class="cls-26" d="M526.28,484.88a35.67,35.67,0,0,0,.6,62.1"/>
      <path class="cls-26" d="M526.28,834.67a35.67,35.67,0,0,0,.6,62.1"/>
      <path class="cls-26" d="M526.07,1184.47a35.67,35.67,0,0,0,.6,62.1"/>
      <path class="cls-26" d="M526.66,1535.47a35.67,35.67,0,0,0,.59,62.1"/>
      <path class="cls-26" d="M570.86,310.17a35.68,35.68,0,0,1-.6,62.1"/>
      <path class="cls-26" d="M570.86,660.17a35.68,35.68,0,0,1-.6,62.1"/>
      <path class="cls-26" d="M570.72,1009.62a35.66,35.66,0,0,1-.59,62.09"/>
      <path class="cls-26" d="M569.86,1360.17a35.68,35.68,0,0,1-.6,62.1"/>
      <path class="cls-26" d="M570.86,1710.77a35.68,35.68,0,0,1-.6,62.1"/>
      <line class="cls-26" x1="614.27" y1="864.02" x2="1052.07" y2="864.02"/>
      <line class="cls-26" x1="45.37" y1="1039.62" x2="483.07" y2="1039.62"/>
      <line class="cls-26" x1="613.77" y1="1215.52" x2="1051.57" y2="1215.52"/>
      <line class="cls-26" x1="45.97" y1="1391.52" x2="483.67" y2="1391.52"/>
    </g>
  </g>
 <g id="pile">
 <g>
    <circle class="cls-5" cx="264.07" cy="512.7" r="46.83"/>
    <polygon class="cls-6" points="243.66 512.61 233.34 502.3 245.07 502.3 274.06 502.3 277.33 502.3 277.33 495.25 294.69 512.61 277.33 529.97 277.33 522.91 274.06 522.91 245.07 522.91 233.34 522.91 243.66 512.61"/>
  </g>
  <g>
    <circle class="cls-5" cx="264.3" cy="865.72" r="46.83"/>
    <polygon class="cls-6" points="243.88 865.63 233.57 855.32 245.29 855.32 274.3 855.32 277.56 855.32 277.56 848.27 294.92 865.63 277.56 882.99 277.56 875.94 274.3 875.94 245.29 875.94 233.57 875.94 243.88 865.63"/>
  </g>
  <g>
    <circle class="cls-5" cx="264.82" cy="1214.32" r="46.83"/>
    <polygon class="cls-6" points="244.41 1214.22 234.09 1203.92 245.81 1203.92 274.81 1203.92 278.08 1203.92 278.08 1196.87 295.44 1214.22 278.08 1231.59 278.08 1224.54 274.81 1224.54 245.81 1224.54 234.09 1224.54 244.41 1214.22"/>
  </g>
  <g>
    <circle class="cls-5" cx="264.22" cy="1564.52" r="46.83"/>
    <polygon class="cls-6" points="243.81 1564.43 233.5 1554.12 245.22 1554.12 274.21 1554.12 277.49 1554.12 277.49 1547.07 294.85 1564.43 277.49 1581.79 277.49 1574.73 274.21 1574.73 245.22 1574.73 233.5 1574.73 243.81 1564.43"/>
  </g>
  <g>
    <circle class="cls-5" cx="832.79" cy="1738.32" r="46.83"/>
    <polygon class="cls-6" points="853.2 1738.22 863.5 1748.54 851.78 1748.54 822.78 1748.54 819.51 1748.54 819.51 1755.59 802.15 1738.22 819.51 1720.87 819.51 1727.92 822.78 1727.92 851.78 1727.92 863.5 1727.92 853.2 1738.22"/>
  </g>
  <g>
    <circle class="cls-5" cx="834.79" cy="1389.32" r="46.83"/>
    <polygon class="cls-6" points="855.2 1389.22 865.5 1399.54 853.78 1399.54 824.78 1399.54 821.51 1399.54 821.51 1406.59 804.15 1389.22 821.51 1371.87 821.51 1378.92 824.78 1378.92 853.78 1378.92 865.5 1378.92 855.2 1389.22"/>
  </g>
  <g>
    <circle class="cls-5" cx="832.66" cy="1039.22" r="46.83"/>
    <polygon class="cls-6" points="853.05 1039.12 863.37 1049.44 851.64 1049.44 822.64 1049.44 819.38 1049.44 819.38 1056.48 802.02 1039.12 819.38 1021.77 819.38 1028.82 822.64 1028.82 851.64 1028.82 863.37 1028.82 853.05 1039.12"/>
  </g>
  <g>
    <circle class="cls-5" cx="835.05" cy="689.22" r="46.83"/>
    <polygon class="cls-6" points="855.45 689.13 865.75 699.44 854.03 699.44 825.03 699.44 821.77 699.44 821.77 706.49 804.41 689.13 821.77 671.77 821.77 678.82 825.03 678.82 854.03 678.82 865.75 678.82 855.45 689.13"/>
  </g>
  <g>
    <circle class="cls-5" cx="832.92" cy="335.82" r="46.83"/>
    <polygon class="cls-6" points="853.33 335.73 863.63 346.04 851.91 346.04 822.91 346.04 819.64 346.04 819.64 353.09 802.28 335.73 819.64 318.37 819.64 325.42 822.91 325.42 851.91 325.42 863.63 325.42 853.33 335.73"/>
  </g>
</svg>
