<svg id="Layer_1" data-name="Layer 1" xmlns="http://www.w3.org/2000/svg" viewBox="0 0 1800 2200">
  <defs>
    <style>
      .cls-1, .cls-10, .cls-12, .cls-14, .cls-16, .cls-18, .cls-20, .cls-22, .cls-24, .cls-25, .cls-26, .cls-29, .cls-5, .cls-8 {
        fill: none;
      }

      .cls-1 {
        stroke: #020202;
        stroke-width: 6.2px;
      }

      .cls-1, .cls-10, .cls-11, .cls-12, .cls-13, .cls-14, .cls-15, .cls-16, .cls-17, .cls-18, .cls-19, .cls-20, .cls-21, .cls-22, .cls-23, .cls-24, .cls-25, .cls-28, .cls-29, .cls-3, .cls-4, .cls-5, .cls-6, .cls-7, .cls-8, .cls-9 {
        stroke-miterlimit: 10;
      }

      .cls-2 {
        fill: #1f1f1f;
      }

      .cls-11, .cls-13, .cls-15, .cls-17, .cls-19, .cls-21, .cls-23, .cls-3, .cls-6, .cls-9 {
        fill: #f1d8eb;
      }

      .cls-10, .cls-11, .cls-12, .cls-13, .cls-14, .cls-15, .cls-16, .cls-17, .cls-18, .cls-19, .cls-20, .cls-21, .cls-22, .cls-23, .cls-24, .cls-29, .cls-3, .cls-4, .cls-5, .cls-6, .cls-7, .cls-8, .cls-9 {
        stroke: #060305;
      }

      .cls-3 {
        stroke-width: 2.01px;
      }

      .cls-4, .cls-7 {
        fill: #d4d4d4;
      }

      .cls-4 {
        stroke-width: 1.32px;
      }

      .cls-5 {
        stroke-width: 4.13px;
      }

      .cls-6 {
        stroke-width: 2.03px;
      }

      .cls-7 {
        stroke-width: 1.33px;
      }

      .cls-8 {
        stroke-width: 5.01px;
      }

      .cls-9 {
        stroke-width: 2px;
      }

      .cls-10 {
        stroke-width: 5.57px;
      }

      .cls-11 {
        stroke-width: 2.2px;
      }

      .cls-12 {
        stroke-width: 5.04px;
      }

      .cls-13 {
        stroke-width: 2.02px;
      }

      .cls-14 {
        stroke-width: 5.95px;
      }

      .cls-15 {
        stroke-width: 2.22px;
      }

      .cls-16 {
        stroke-width: 5.85px;
      }

      .cls-17 {
        stroke-width: 1.98px;
      }

      .cls-18 {
        stroke-width: 5.23px;
      }

      .cls-19 {
        stroke-width: 2.2px;
      }

      .cls-20 {
        stroke-width: 6.63px;
      }

      .cls-21 {
        stroke-width: 1.87px;
      }

      .cls-22 {
        stroke-width: 6.53px;
      }

      .cls-23 {
        stroke-width: 1.77px;
      }

      .cls-24 {
        stroke-width: 5.87px;
      }

      .cls-25, .cls-28 {
        stroke: #000;
      }

      .cls-25 {
        stroke-width: 5px;
      }

      .cls-27 {
        fill: #1d1d1d;
      }

      .cls-28 {
        stroke-width: 5.13px;
      }

      .cls-29 {
        stroke-width: 2px;
      }
    </style>
  </defs>
  <title>timeline-linear-011</title>

  <g id="timeline">
    <g id="emne-1">
      <path id="info-box" class="cls-3" d="M962.41,223.84h437.8v82.74c0,6.64-11.89,12.07-26.53,12.07H988.94c-14.64,0-26.53-5.43-26.53-12.07V223.84Z"/>
      <path id="overskrift" class="cls-4" d="M1384.85,165.34H981.74c-8.55,0-15.54,4-15.54,8.9v22.1c0,5.5,7.86,10,17.46,10h399.09c9.6,0,17.46-4.5,17.46-10v-22.1C1400.21,169.34,1393.4,165.34,1384.85,165.34Z"/>
      <line class="cls-5" x1="697.11" y1="210.44" x2="832.11" y2="210.44"/>
    </g>
    <g id="emne-2">
      <path class="cls-6" d="M394.54,399.24H831v82.31c-.13,6.62-11.92,11.94-26.48,11.94H420.89c-14.56,0-26.48-5.39-26.48-12h0V399.24Z"/>
      <path class="cls-7" d="M409.9,339.94H816.15c8.62,0,15.66,4,15.66,8.9v22.1c0,5.5-7.92,10-17.59,10H412c-9.68,0-17.6-4.5-17.6-10v-22.1C394.24,343.84,401.27,339.94,409.9,339.94Z"/>
      <line class="cls-8" x1="1096.71" y1="384.34" x2="962.31" y2="384.34"/>
    </g>
    <g id="emne-3">
      <path class="cls-9" d="M962.41,574.74h437.3v81.37c0,6.53-11.91,11.87-26.45,11.87H988.86c-14.67,0-26.45-5.34-26.45-11.87V574.74Z"/>
      <path class="cls-4" d="M981.69,513.34h403c8.55,0,15.53,4,15.53,8.9h0v22.1c0,5.5-7.85,10-17.45,10H983.61c-9.6,0-17.46-4.5-17.46-10v-22.1C966.15,517.24,973.14,513.34,981.69,513.34Z"/>
      <line class="cls-10" x1="696.91" y1="562.14" x2="831.01" y2="562.14"/>
    </g>
    <g id="emne-4">
      <path class="cls-11" d="M393.21,749.94H831.76v81.38c0,6.62-11.89,12-26.41,12H419.62c-14.65,0-26.41-5.35-26.41-12h0Z"/>
      <path class="cls-7" d="M408.64,686.79H816.06c8.64,0,15.7,4,15.7,8.9v22.1c0,5.5-7.94,10-17.64,10H410.76c-9.71,0-17.65-4.5-17.65-10v-22.1C393,690.69,400,686.79,408.64,686.79Z"/>
      <line class="cls-12" x1="1097.26" y1="734.34" x2="962.26" y2="734.34"/>
    </g>
    <g id="emne-5">
      <path class="cls-13" d="M962.41,923h437.3v82.84c0,6.75-11.82,12.19-26.4,12.19H988.81c-14.58,0-26.4-5.44-26.4-12.19h0V923Z"/>
      <path class="cls-4" d="M981.67,862.29h402.52c8.55,0,15.52,4,15.52,8.9h0v22.1c0,5.5-7.84,10-17.43,10H983.59c-9.59,0-17.44-4.5-17.44-10v-22c0-4.9,7-8.9,15.52-8.9Z"/>
      <line class="cls-14" x1="697.71" y1="910.04" x2="831.21" y2="910.04"/>
    </g>
    <g id="emne-6">
      <path class="cls-15" d="M393.51,1101.74h437.7v80c0,6.51-11.84,11.76-26.42,11.76H419.93c-14.58,0-26.42-5.25-26.42-11.76h0Z"/>
      <path class="cls-7" d="M408.81,1037.24h407.3c8.64,0,15.7,4,15.7,8.9v22.1c0,5.5-7.94,10-17.64,10H410.75c-9.7,0-17.64-4.5-17.64-10v-22.1C393.11,1041.24,400.17,1037.24,408.81,1037.24Z"/>
      <line class="cls-16" x1="1093.71" y1="1084.34" x2="962.41" y2="1084.34"/>
    </g>
    <g id="emne-7">
      <path class="cls-17" d="M962,1276.44h437.67v80c0,6.51-11.77,11.76-26.42,11.76h-385c-14.53,0-26.42-5.25-26.42-11.76h0v-80Z"/>
      <path class="cls-7" d="M977.58,1215.34H1384c8.63,0,15.67,4,15.67,8.9h0v22.1c0,5.5-7.92,10-17.6,10H979.51c-9.68,0-17.6-4.5-17.6-10v-22.1C961.91,1219.34,968.91,1215.34,977.58,1215.34Z"/>
      <line class="cls-18" x1="699.91" y1="1259.44" x2="831.81" y2="1259.44"/>
    </g>
    <g id="emne-8">
      <path class="cls-19" d="M394.23,1453.44H831.81v78.25c0,6.36-11.71,11.5-26.28,11.5h-385c-14.58,0-26.41-5.14-26.41-11.5h0v-78.25Z"/>
      <path class="cls-7" d="M408.74,1390.34H816.1c8.65,0,15.71,4,15.71,8.9v22.1c0,5.5-7.94,10-17.65,10H410.86c-9.7,0-17.65-4.5-17.65-10v-22.1C393,1394.34,400.1,1390.34,408.74,1390.34Z"/>
      <line class="cls-20" x1="1097.61" y1="1434.34" x2="961.91" y2="1434.34"/>
    </g>
    <g id="emne-9">
      <path class="cls-4" d="M981.67,1564.34h402.52c8.55,0,15.52,4,15.52,8.9v22.1c0,5.5-7.84,10-17.43,10H983.59c-9.59,0-17.44-4.5-17.44-10v-22.1C966.15,1568.24,973.13,1564.34,981.67,1564.34Z"/>
      <path class="cls-21" d="M963.33,1625.34h436.38v81.33c0,6.63-11.74,12-26.35,12H989.56c-14.49,0-26.35-5.35-26.35-12h0v-81.33Z"/>
      <line class="cls-22" x1="697.51" y1="1609.64" x2="831.81" y2="1609.64"/>
    </g>
    <g id="emne-10">
      <path class="cls-7" d="M408.75,1740.34h409c8.67,0,15.76,4,15.76,8.9v22.1c0,5.5-8,10-17.71,10H410.87c-9.74,0-17.71-4.5-17.71-10v-22.1C393.16,1744.34,400.07,1740.34,408.75,1740.34Z"/>
      <path class="cls-23" d="M394.45,1801H830.91v80.32c0,6.54-11.81,11.82-26.32,11.82H420.77c-14.51,0-26.32-5.28-26.32-11.82h0Z"/>
      <line class="cls-24" x1="1097.31" y1="1785.44" x2="962.38" y2="1785.44"/>
    </g>
    <g id="Bullets">
      <circle class="cls-25" cx="895.11" cy="210.64" r="12.6"/>
      <g>
        <rect class="cls-26" x="918.81" y="198.44" width="12" height="24"/>
        <polygon class="cls-27" points="918.81 198.44 918.81 222.44 930.81 210.44 918.81 198.44"/>
      </g>
      <circle class="cls-25" cx="895.21" cy="560.44" r="12.6"/>
      <g>
        <rect class="cls-26" x="918.91" y="548.14" width="12" height="24"/>
        <polygon class="cls-27" points="918.91 548.13 918.91 572.24 930.91 560.24 918.91 548.13"/>
      </g>
      <circle class="cls-25" cx="895.11" cy="910.24" r="12.6"/>
      <g>
        <rect class="cls-26" x="918.71" y="898.04" width="12" height="24"/>
        <polygon class="cls-27" points="918.71 898.03 918.71 922.03 930.81 910.03 918.71 898.03"/>
      </g>
      <circle class="cls-25" cx="895.11" cy="1259.64" r="12.6"/>
      <g>
        <rect class="cls-26" x="918.81" y="1247.44" width="12" height="24"/>
        <polygon class="cls-27" points="918.81 1247.43 918.81 1271.43 930.81 1259.43 918.81 1247.43"/>
      </g>
      <circle class="cls-25" cx="895.11" cy="1609.64" r="12.6"/>
      <g>
        <rect class="cls-26" x="918.81" y="1597.44" width="12" height="24"/>
        <polygon class="cls-27" points="918.81 1597.43 918.81 1621.43 930.81 1609.43 918.81 1597.43"/>
      </g>
      <circle class="cls-25" cx="895.61" cy="1785.34" r="12.6"/>
      <g>
        <rect class="cls-26" x="862.81" y="1773.44" width="12" height="24"/>
        <polygon class="cls-27" points="874.81 1797.43 874.81 1773.43 862.81 1785.43 874.81 1797.43"/>
      </g>
      <circle class="cls-25" cx="895.61" cy="1434.34" r="12.6"/>
      <g>
        <rect class="cls-26" x="862.81" y="1422.44" width="12" height="24"/>
        <polygon class="cls-27" points="874.81 1446.43 874.81 1422.43 862.81 1434.43 874.81 1446.43"/>
      </g>
      <circle class="cls-25" cx="895.61" cy="1084.34" r="12.6"/>
      <g>
        <rect class="cls-26" x="862.81" y="1072.44" width="12" height="24"/>
        <polygon class="cls-27" points="874.81 1096.43 874.81 1072.43 862.81 1084.43 874.81 1096.43"/>
      </g>
      <circle class="cls-25" cx="895.61" cy="734.34" r="12.6"/>
      <g>
        <rect class="cls-26" x="862.81" y="722.44" width="12" height="24"/>
        <polygon class="cls-27" points="874.81 746.43 874.81 722.43 862.81 734.43 874.81 746.43"/>
      </g>
      <circle class="cls-25" cx="895.61" cy="384.34" r="12.6"/>
      <g>
        <rect class="cls-26" x="862.81" y="372.44" width="12" height="24"/>
        <polygon class="cls-27" points="874.81 396.44 874.81 372.44 862.81 384.44 874.81 396.44"/>
      </g>
    </g>
    <g id="linje">
      <path class="cls-28" d="M895.71,185.84h0a4.06,4.06,0,0,1-4.1-4V63.74a4.06,4.06,0,0,1,4-4.1h.08a4,4,0,0,1,4.1,4V181.74A4.2,4.2,0,0,1,895.71,185.84Z"/>
      <path class="cls-28" d="M894.81,360.44h0a4.06,4.06,0,0,1-4.1-4V238.34a4.06,4.06,0,0,1,4-4.1h.08a4,4,0,0,1,4.1,4V356.34a4.07,4.07,0,0,1-4,4.1Z"/>
      <path class="cls-28" d="M894.71,535.84h0a4.06,4.06,0,0,1-4.1-4V413.74a4.06,4.06,0,0,1,4-4.1h.08a4,4,0,0,1,4.1,4V531.74A4.2,4.2,0,0,1,894.71,535.84Z"/>
      <path class="cls-28" d="M894.51,710.84h0a4.06,4.06,0,0,1-4.1-4V588.74a4.06,4.06,0,0,1,4-4.1h.08a4,4,0,0,1,4.1,4V706.74a4.07,4.07,0,0,1-4,4.1Z"/>
      <path class="cls-28" d="M894.71,885.84h0a4.06,4.06,0,0,1-4.1-4V763.74a4.06,4.06,0,0,1,4-4.1h.08a4,4,0,0,1,4.1,4V881.74A4.2,4.2,0,0,1,894.71,885.84Z"/>
      <path class="cls-28" d="M894.71,1060.84h0a4.06,4.06,0,0,1-4.1-4V938.74a4.06,4.06,0,0,1,4-4.1h.08a4,4,0,0,1,4.1,4v118.09A4.2,4.2,0,0,1,894.71,1060.84Z"/>
      <path class="cls-28" d="M894.71,1235.84h0a4.06,4.06,0,0,1-4.1-4V1113.74a4.06,4.06,0,0,1,4-4.1h.08a4,4,0,0,1,4.1,4v118.09A4.2,4.2,0,0,1,894.71,1235.84Z"/>
      <path class="cls-28" d="M894.71,1410.84h0a4.06,4.06,0,0,1-4.1-4V1288.74a4.06,4.06,0,0,1,4-4.1h.08a4,4,0,0,1,4.1,4v118.09A4.2,4.2,0,0,1,894.71,1410.84Z"/>
      <path class="cls-28" d="M894.71,1585.84h0a4.06,4.06,0,0,1-4.1-4V1463.74a4.06,4.06,0,0,1,4-4.1h.08a4,4,0,0,1,4.1,4v118.09A4.2,4.2,0,0,1,894.71,1585.84Z"/>
      <path class="cls-28" d="M895.11,1935.64h0a4.06,4.06,0,0,1-4.1-4V1813.54a4.06,4.06,0,0,1,4-4.1h.08a4.05,4.05,0,0,1,4.1,4v118.08A4.2,4.2,0,0,1,895.11,1935.64Z"/>
      <path class="cls-28" d="M894.71,1760.84h0a4.06,4.06,0,0,1-4.1-4V1638.74a4.06,4.06,0,0,1,4-4.1h.08a4,4,0,0,1,4.1,4v118.09A4.2,4.2,0,0,1,894.71,1760.84Z"/>
      <line class="cls-29" x1="393.21" y1="734.44" x2="831.01" y2="734.44"/>
      <line class="cls-29" x1="962.41" y1="210.64" x2="1400.21" y2="210.64"/>
      <line class="cls-29" x1="394.41" y1="385.14" x2="832.11" y2="385.14"/>
      <line class="cls-29" x1="962.31" y1="558.94" x2="1400.11" y2="558.94"/>
      <line class="cls-29" x1="963.21" y1="1610.34" x2="1401.01" y2="1610.34"/>
      <line class="cls-29" x1="395.81" y1="1785.14" x2="833.51" y2="1785.14"/>
      <path class="cls-29" d="M874,179.59a35.67,35.67,0,0,0,.6,62.1"/>
      <path class="cls-29" d="M874.42,530a35.67,35.67,0,0,0,.6,62.1"/>
      <path class="cls-29" d="M874.42,879.79a35.67,35.67,0,0,0,.6,62.1"/>
      <path class="cls-29" d="M874.21,1229.59a35.67,35.67,0,0,0,.6,62.1"/>
      <path class="cls-29" d="M874.8,1580.59a35.67,35.67,0,0,0,.59,62.1"/>
      <path class="cls-29" d="M919,355.29a35.67,35.67,0,0,1-.6,62.1"/>
      <path class="cls-29" d="M919,705.29a35.67,35.67,0,0,1-.6,62.1"/>
      <path class="cls-29" d="M918.86,1054.74a35.66,35.66,0,0,1-.59,62.09"/>
      <path class="cls-29" d="M918,1405.29a35.67,35.67,0,0,1-.6,62.1"/>
      <path class="cls-29" d="M919,1755.89a35.67,35.67,0,0,1-.6,62.1"/>
      <line class="cls-29" x1="962.41" y1="909.14" x2="1400.21" y2="909.14"/>
      <line class="cls-29" x1="393.51" y1="1084.74" x2="831.21" y2="1084.74"/>
      <line class="cls-29" x1="961.91" y1="1260.64" x2="1399.71" y2="1260.64"/>
      <line class="cls-29" x1="394.11" y1="1436.64" x2="831.81" y2="1436.64"/>
    </g>
  </g>
  <g>
    <circle class="cls-1" cx="612.21" cy="557.82" r="46.83"/>
    <polygon class="cls-2" points="591.8 557.73 581.49 547.42 593.22 547.42 622.21 547.42 625.48 547.42 625.48 540.37 642.84 557.73 625.48 575.09 625.48 568.04 622.21 568.04 593.22 568.04 581.49 568.04 591.8 557.73"/>
  </g>
  <g>
    <circle class="cls-1" cx="612.44" cy="910.84" r="46.83"/>
    <polygon class="cls-2" points="592.03 910.75 581.72 900.44 593.44 900.44 622.44 900.44 625.71 900.44 625.71 893.39 643.06 910.75 625.71 928.11 625.71 921.06 622.44 921.06 593.44 921.06 581.72 921.06 592.03 910.75"/>
  </g>
  <g>
    <circle class="cls-1" cx="612.96" cy="1259.44" r="46.83"/>
    <polygon class="cls-2" points="592.55 1259.35 582.24 1249.04 593.96 1249.04 622.96 1249.04 626.23 1249.04 626.23 1241.99 643.59 1259.35 626.23 1276.71 626.23 1269.66 622.96 1269.66 593.96 1269.66 582.24 1269.66 592.55 1259.35"/>
  </g>
  <g>
    <circle class="cls-1" cx="612.36" cy="1609.64" r="46.83"/>
    <polygon class="cls-2" points="591.95 1609.55 581.64 1599.24 593.36 1599.24 622.36 1599.24 625.63 1599.24 625.63 1592.19 642.99 1609.55 625.63 1626.91 625.63 1619.86 622.36 1619.86 593.36 1619.86 581.64 1619.86 591.95 1609.55"/>
  </g>
  <g>
    <circle class="cls-1" cx="1180.93" cy="1783.44" r="46.83"/>
    <polygon class="cls-2" points="1201.34 1783.35 1211.65 1793.66 1199.93 1793.66 1170.93 1793.66 1167.66 1793.66 1167.66 1800.71 1150.3 1783.35 1167.66 1765.99 1167.66 1773.04 1170.93 1773.04 1199.93 1773.04 1211.65 1773.04 1201.34 1783.35"/>
  </g>
  <g>
    <circle class="cls-1" cx="1182.93" cy="1434.44" r="46.83"/>
    <polygon class="cls-2" points="1203.34 1434.35 1213.65 1444.66 1201.93 1444.66 1172.93 1444.66 1169.66 1444.66 1169.66 1451.71 1152.3 1434.35 1169.66 1416.99 1169.66 1424.04 1172.93 1424.04 1201.93 1424.04 1213.65 1424.04 1203.34 1434.35"/>
  </g>
  <g>
    <circle class="cls-1" cx="1180.8" cy="1084.34" r="46.83"/>
    <polygon class="cls-2" points="1201.2 1084.24 1211.51 1094.56 1199.79 1094.56 1170.79 1094.56 1167.53 1094.56 1167.53 1101.61 1150.17 1084.24 1167.53 1066.89 1167.53 1073.94 1170.79 1073.94 1199.79 1073.94 1211.51 1073.94 1201.2 1084.24"/>
  </g>
  <g>
    <circle class="cls-1" cx="1183.19" cy="734.34" r="46.83"/>
    <polygon class="cls-2" points="1203.59 734.25 1213.9 744.56 1202.18 744.56 1173.18 744.56 1169.92 744.56 1169.92 751.61 1152.56 734.25 1169.92 716.89 1169.92 723.94 1173.18 723.94 1202.18 723.94 1213.9 723.94 1203.59 734.25"/>
  </g>
  <g>
    <circle class="cls-1" cx="1181.06" cy="380.94" r="46.83"/>
    <polygon class="cls-2" points="1201.47 380.85 1211.78 391.16 1200.06 391.16 1171.06 391.16 1167.79 391.16 1167.79 398.21 1150.43 380.85 1167.79 363.49 1167.79 370.54 1171.06 370.54 1200.06 370.54 1211.78 370.54 1201.47 380.85"/>
  </g>
</svg>
