<svg id="Layer_1" data-name="Layer 1" xmlns="http://www.w3.org/2000/svg" viewBox="0 0 1800 2200">
  <defs>
    <style>
      .cls-1, .cls-10, .cls-12, .cls-14, .cls-16, .cls-18, .cls-20, .cls-4, .cls-6, .cls-8 {
        fill: #f1d8eb;
      }

      .cls-1, .cls-10, .cls-11, .cls-12, .cls-13, .cls-14, .cls-15, .cls-16, .cls-17, .cls-18, .cls-19, .cls-2, .cls-20, .cls-21, .cls-26, .cls-3, .cls-4, .cls-5, .cls-6, .cls-7, .cls-8, .cls-9 {
        stroke: #060305;
      }

      .cls-1, .cls-10, .cls-11, .cls-12, .cls-13, .cls-14, .cls-15, .cls-16, .cls-17, .cls-18, .cls-19, .cls-2, .cls-20, .cls-21, .cls-22, .cls-25, .cls-26, .cls-3, .cls-4, .cls-5, .cls-6, .cls-7, .cls-8, .cls-9 {
        stroke-miterlimit: 10;
      }

      .cls-1 {
        stroke-width: 7.04px;
      }

      .cls-2 {
        fill: #d4d4d4;
      }

      .cls-11, .cls-13, .cls-15, .cls-17, .cls-19, .cls-21, .cls-22, .cls-23, .cls-26, .cls-3, .cls-5, .cls-7, .cls-9 {
        fill: none;
      }

      .cls-3 {
        stroke-width: 4.13px;
      }

      .cls-4 {
        stroke-width: 7.18px;
      }

      .cls-5 {
        stroke-width: 5.01px;
      }

      .cls-6 {
        stroke-width: 7.03px;
      }

      .cls-7 {
        stroke-width: 5.57px;
      }

      .cls-8 {
        stroke-width: 7px;
      }

      .cls-9 {
        stroke-width: 5.04px;
      }

      .cls-10 {
        stroke-width: 6.97px;
      }

      .cls-11 {
        stroke-width: 5.95px;
      }

      .cls-12 {
        stroke-width: 7.01px;
      }

      .cls-13 {
        stroke-width: 5.85px;
      }

      .cls-14 {
        stroke-width: 6.99px;
      }

      .cls-15 {
        stroke-width: 5.23px;
      }

      .cls-16 {
        stroke-width: 7.01px;
      }

      .cls-17 {
        stroke-width: 6.63px;
      }

      .cls-18 {
        stroke-width: 7.05px;
      }

      .cls-19 {
        stroke-width: 6.53px;
      }

      .cls-20 {
        stroke-width: 7.51px;
      }

      .cls-21 {
        stroke-width: 5.87px;
      }

      .cls-22, .cls-25 {
        stroke: #000;
      }

      .cls-22 {
        stroke-width: 5px;
      }

      .cls-24 {
        fill: #1d1d1d;
      }

      .cls-25 {
        stroke-width: 5.13px;
      }

      .cls-26 {
        stroke-width: 2px;
      }

      .cls-27 {
        font-size: 48px;
        font-family: AvenirNextCondensed-Regular, Avenir Next Condensed;
      }

      .cls-28 {
        letter-spacing: -0.01em;
      }

      .cls-29 {
        letter-spacing: -0.02em;
      }
    </style>
  </defs>
  <title>timeline-linear-02</title>
  <g id="timeline">
    <g id="emne-1">
      <path id="info-box" class="cls-1" d="M1006.6,222.6h349.8V324.7c0,8.2-9.5,14.9-21.2,14.9H1027.8c-11.7,0-21.2-6.7-21.2-14.9V222.6Z"/>
      <path id="overskrift" class="cls-2" d="M1206,164.1H975.09a8.92,8.92,0,0,0-8.9,8.9v22.1a10,10,0,0,0,10,10h228.6a10,10,0,0,0,10-10V173A8.83,8.83,0,0,0,1206,164.1Z"/>
      <line class="cls-3" x1="697.1" y1="209.2" x2="832.1" y2="209.2"/>
    </g>
    <g id="emne-2">
      <path class="cls-4" d="M438.9,398H786.7V504.9c-.1,8.6-9.5,15.5-21.1,15.5H459.9c-11.6,0-21.1-7-21.1-15.6h0V398Z"/>
      <path class="cls-2" d="M403.2,338.7H634.1a8.92,8.92,0,0,1,8.9,8.9v22.1a10,10,0,0,1-10,10H404.4a10,10,0,0,1-10-10V347.6A8.71,8.71,0,0,1,403.2,338.7Z"/>
      <line class="cls-5" x1="1096.7" y1="383.1" x2="962.3" y2="383.1"/>
    </g>
    <g id="emne-3">
      <path class="cls-6" d="M1007.3,573.5h348.9V675.6c0,8.2-9.5,14.9-21.1,14.9H1028.4c-11.7,0-21.1-6.7-21.1-14.9V573.5Z"/>
      <path class="cls-2" d="M975,512.1h230.9a8.92,8.92,0,0,1,8.9,8.9h0v22.1a10,10,0,0,1-10,10H976.14a10,10,0,0,1-10-10V521A8.86,8.86,0,0,1,975,512.1Z"/>
      <line class="cls-7" x1="696.9" y1="560.9" x2="831" y2="560.9"/>
    </g>
    <g id="emne-4">
      <path class="cls-8" d="M437.1,748.7H787.5v102c0,8.3-9.5,15-21.1,15H458.2c-11.7,0-21.1-6.7-21.1-15h0v-102Z"/>
      <path class="cls-2" d="M402,685.55h230.9a8.92,8.92,0,0,1,8.9,8.9v22.1a10,10,0,0,1-10,10H403.15a10,10,0,0,1-10-10v-22.1A8.71,8.71,0,0,1,402,685.55Z"/>
      <line class="cls-9" x1="1097.3" y1="733.1" x2="962.3" y2="733.1"/>
    </g>
    <g id="emne-5">
      <path class="cls-10" d="M1009.3,921.8h347.9v102c0,8.3-9.4,15-21,15H1030.3c-11.6,0-21-6.7-21-15h0v-102Z"/>
      <path class="cls-2" d="M975,861.05h230.9a8.92,8.92,0,0,1,8.9,8.9h0v22.1a10,10,0,0,1-10,10H976.14a10,10,0,0,1-10-10V870a8.92,8.92,0,0,1,8.9-8.9Z"/>
      <line class="cls-11" x1="697.7" y1="908.8" x2="831.2" y2="908.8"/>
    </g>
    <g id="emne-6">
      <path class="cls-12" d="M437.8,1100.5H789v102c0,8.3-9.5,15-21.2,15H459c-11.7,0-21.2-6.7-21.2-15h0v-102Z"/>
      <path class="cls-2" d="M402,1036H632.9a8.92,8.92,0,0,1,8.9,8.9V1067a10,10,0,0,1-10,10H403.1a10,10,0,0,1-10-10v-22.1a8.92,8.92,0,0,1,8.9-8.9Z"/>
      <line class="cls-13" x1="1093.7" y1="1083.1" x2="962.4" y2="1083.1"/>
    </g>
    <g id="emne-7">
      <path class="cls-14" d="M1006.6,1275.2h349.6v102c0,8.3-9.4,15-21.1,15H1027.6c-11.6,0-21.1-6.7-21.1-15h0v-102Z"/>
      <path class="cls-2" d="M970.8,1214.1h230.9a8.92,8.92,0,0,1,8.9,8.9h0v22.1a10,10,0,0,1-10,10H971.9a10,10,0,0,1-10-10V1223a8.92,8.92,0,0,1,8.9-8.9Z"/>
      <line class="cls-15" x1="699.9" y1="1258.2" x2="831.8" y2="1258.2"/>
    </g>
    <g id="emne-8">
      <path class="cls-16" d="M436.5,1452.2H787.8v102c0,8.3-9.4,15-21.1,15H457.6c-11.7,0-21.2-6.7-21.2-15h0v-102Z"/>
      <path class="cls-2" d="M402,1389.1H632.8a8.92,8.92,0,0,1,8.9,8.9v22.1a10,10,0,0,1-10,10H403.2a10,10,0,0,1-10-10V1398a8.77,8.77,0,0,1,8.8-8.9Z"/>
      <line class="cls-17" x1="1097.6" y1="1433.1" x2="961.9" y2="1433.1"/>
    </g>
    <g id="emne-9">
      <path class="cls-2" d="M975,1563.1h230.9a8.92,8.92,0,0,1,8.9,8.9v22.1a10,10,0,0,1-10,10H976.14a10,10,0,0,1-10-10V1572A8.86,8.86,0,0,1,975,1563.1Z"/>
      <path class="cls-18" d="M1007.3,1624.1h349.4v103.2c0,8.4-9.4,15.2-21.1,15.2H1028.3c-11.6,0-21.1-6.8-21.1-15.2h0V1624.1Z"/>
      <line class="cls-19" x1="697.5" y1="1608.4" x2="831.8" y2="1608.4"/>
    </g>
    <g id="emne-10">
      <path class="cls-2" d="M402,1739.1h230.9a8.92,8.92,0,0,1,8.9,8.9v22.1a10,10,0,0,1-10,10H403.15a10,10,0,0,1-10-10V1748A8.83,8.83,0,0,1,402,1739.1Z"/>
      <path class="cls-20" d="M428,1799.8H830.9v102c0,8.3-10.9,15-24.3,15H452.3c-13.4,0-24.3-6.7-24.3-15h0v-102Z"/>
      <line class="cls-21" x1="1097.3" y1="1784.2" x2="962.37" y2="1784.2"/>
    </g>
    <g id="Bullets">
      <circle class="cls-22" cx="895.1" cy="209.4" r="12.6"/>
      <g>
        <rect class="cls-23" x="918.8" y="197.2" width="12" height="24"/>
        <polygon class="cls-24" points="918.8 197.2 918.8 221.2 930.8 209.2 918.8 197.2"/>
      </g>
      <circle class="cls-22" cx="895.2" cy="559.2" r="12.6"/>
      <g>
        <rect class="cls-23" x="918.9" y="546.9" width="12" height="24"/>
        <polygon class="cls-24" points="918.9 546.9 918.9 571 930.9 559 918.9 546.9"/>
      </g>
      <circle class="cls-22" cx="895.1" cy="909" r="12.6"/>
      <g>
        <rect class="cls-23" x="918.7" y="896.8" width="12" height="24"/>
        <polygon class="cls-24" points="918.7 896.8 918.7 920.8 930.8 908.8 918.7 896.8"/>
      </g>
      <circle class="cls-22" cx="895.1" cy="1258.4" r="12.6"/>
      <g>
        <rect class="cls-23" x="918.8" y="1246.2" width="12" height="24"/>
        <polygon class="cls-24" points="918.8 1246.2 918.8 1270.2 930.8 1258.2 918.8 1246.2"/>
      </g>
      <circle class="cls-22" cx="895.1" cy="1608.4" r="12.6"/>
      <g>
        <rect class="cls-23" x="918.8" y="1596.2" width="12" height="24"/>
        <polygon class="cls-24" points="918.8 1596.2 918.8 1620.2 930.8 1608.2 918.8 1596.2"/>
      </g>
      <circle class="cls-22" cx="895.6" cy="1784.1" r="12.6"/>
      <g>
        <rect class="cls-23" x="862.8" y="1772.2" width="12" height="24"/>
        <polygon class="cls-24" points="874.8 1796.2 874.8 1772.2 862.8 1784.2 874.8 1796.2"/>
      </g>
      <circle class="cls-22" cx="895.6" cy="1433.1" r="12.6"/>
      <g>
        <rect class="cls-23" x="862.8" y="1421.2" width="12" height="24"/>
        <polygon class="cls-24" points="874.8 1445.2 874.8 1421.2 862.8 1433.2 874.8 1445.2"/>
      </g>
      <circle class="cls-22" cx="895.6" cy="1083.1" r="12.6"/>
      <g>
        <rect class="cls-23" x="862.8" y="1071.2" width="12" height="24"/>
        <polygon class="cls-24" points="874.8 1095.2 874.8 1071.2 862.8 1083.2 874.8 1095.2"/>
      </g>
      <circle class="cls-22" cx="895.6" cy="733.1" r="12.6"/>
      <g>
        <rect class="cls-23" x="862.8" y="721.2" width="12" height="24"/>
        <polygon class="cls-24" points="874.8 745.2 874.8 721.2 862.8 733.2 874.8 745.2"/>
      </g>
      <circle class="cls-22" cx="895.6" cy="383.1" r="12.6"/>
      <g>
        <rect class="cls-23" x="862.8" y="371.2" width="12" height="24"/>
        <polygon class="cls-24" points="874.8 395.2 874.8 371.2 862.8 383.2 874.8 395.2"/>
      </g>
    </g>
    <g id="linje">
      <path class="cls-25" d="M895.7,184.6h0a4.06,4.06,0,0,1-4.1-4.1V62.5a4.06,4.06,0,0,1,4.1-4.1h0a4.06,4.06,0,0,1,4.1,4.1v118A4.19,4.19,0,0,1,895.7,184.6Z"/>
      <path class="cls-25" d="M894.8,359.2h0a4.06,4.06,0,0,1-4.1-4.1v-118a4.06,4.06,0,0,1,4.1-4.1h0a4.06,4.06,0,0,1,4.1,4.1v118A4.06,4.06,0,0,1,894.8,359.2Z"/>
      <path class="cls-25" d="M894.7,534.6h0a4.06,4.06,0,0,1-4.1-4.1v-118a4.06,4.06,0,0,1,4.1-4.1h0a4.06,4.06,0,0,1,4.1,4.1v118A4.19,4.19,0,0,1,894.7,534.6Z"/>
      <path class="cls-25" d="M894.5,709.6h0a4.06,4.06,0,0,1-4.1-4.1v-118a4.06,4.06,0,0,1,4.1-4.1h0a4.06,4.06,0,0,1,4.1,4.1v118A4.06,4.06,0,0,1,894.5,709.6Z"/>
      <path class="cls-25" d="M894.7,884.6h0a4.06,4.06,0,0,1-4.1-4.1v-118a4.06,4.06,0,0,1,4.1-4.1h0a4.06,4.06,0,0,1,4.1,4.1v118A4.19,4.19,0,0,1,894.7,884.6Z"/>
      <path class="cls-25" d="M894.7,1059.6h0a4.06,4.06,0,0,1-4.1-4.1v-118a4.06,4.06,0,0,1,4.1-4.1h0a4.06,4.06,0,0,1,4.1,4.1v118A4.19,4.19,0,0,1,894.7,1059.6Z"/>
      <path class="cls-25" d="M894.7,1234.6h0a4.06,4.06,0,0,1-4.1-4.1v-118a4.06,4.06,0,0,1,4.1-4.1h0a4.06,4.06,0,0,1,4.1,4.1v118A4.19,4.19,0,0,1,894.7,1234.6Z"/>
      <path class="cls-25" d="M894.7,1409.6h0a4.06,4.06,0,0,1-4.1-4.1v-118a4.06,4.06,0,0,1,4.1-4.1h0a4.06,4.06,0,0,1,4.1,4.1v118A4.19,4.19,0,0,1,894.7,1409.6Z"/>
      <path class="cls-25" d="M894.7,1584.6h0a4.06,4.06,0,0,1-4.1-4.1v-118a4.06,4.06,0,0,1,4.1-4.1h0a4.06,4.06,0,0,1,4.1,4.1v118A4.19,4.19,0,0,1,894.7,1584.6Z"/>
      <path class="cls-25" d="M895.1,1934.4h0a4.06,4.06,0,0,1-4.1-4.1v-118a4.06,4.06,0,0,1,4.1-4.1h0a4.06,4.06,0,0,1,4.1,4.1v118A4.19,4.19,0,0,1,895.1,1934.4Z"/>
      <path class="cls-25" d="M894.7,1759.6h0a4.06,4.06,0,0,1-4.1-4.1v-118a4.06,4.06,0,0,1,4.1-4.1h0a4.06,4.06,0,0,1,4.1,4.1v118A4.19,4.19,0,0,1,894.7,1759.6Z"/>
      <line class="cls-26" x1="393.2" y1="733.2" x2="831" y2="733.2"/>
      <line class="cls-26" x1="962.4" y1="209.4" x2="1400.2" y2="209.4"/>
      <line class="cls-26" x1="394.4" y1="383.9" x2="832.1" y2="383.9"/>
      <line class="cls-26" x1="962.3" y1="557.7" x2="1400.1" y2="557.7"/>
      <line class="cls-26" x1="963.2" y1="1609.1" x2="1401" y2="1609.1"/>
      <line class="cls-26" x1="395.8" y1="1783.9" x2="833.5" y2="1783.9"/>
      <path class="cls-26" d="M874,178.35a35.67,35.67,0,0,0,.6,62.1"/>
      <path class="cls-26" d="M874.41,528.75a35.67,35.67,0,0,0,.6,62.1"/>
      <path class="cls-26" d="M874.41,878.55a35.67,35.67,0,0,0,.6,62.1"/>
      <path class="cls-26" d="M874.2,1228.35a35.67,35.67,0,0,0,.6,62.1"/>
      <path class="cls-26" d="M874.79,1579.35a35.66,35.66,0,0,0,.59,62.1"/>
      <path class="cls-26" d="M919,354.05a35.67,35.67,0,0,1-.6,62.1"/>
      <path class="cls-26" d="M919,704.05a35.67,35.67,0,0,1-.6,62.1"/>
      <path class="cls-26" d="M918.85,1053.5a35.65,35.65,0,0,1-.59,62.09"/>
      <path class="cls-26" d="M918,1404.05a35.67,35.67,0,0,1-.6,62.1"/>
      <path class="cls-26" d="M919,1754.65a35.67,35.67,0,0,1-.6,62.1"/>
      <line class="cls-26" x1="962.4" y1="907.9" x2="1400.2" y2="907.9"/>
      <line class="cls-26" x1="393.5" y1="1083.5" x2="831.2" y2="1083.5"/>
      <line class="cls-26" x1="961.9" y1="1259.4" x2="1399.7" y2="1259.4"/>
      <line class="cls-26" x1="394.1" y1="1435.4" x2="831.8" y2="1435.4"/>
    </g>
  </g>
  <g id="Årstal">
    <text class="cls-27" transform="translate(1121.14 1799.75)"><tspan class="cls-28">J</tspan><tspan x="17.9" y="0">anuar 2019</tspan></text>
    <text class="cls-27" transform="translate(404.14 1626.85)">December 2018</text>
    <text class="cls-27" transform="translate(457.2 225.85)"><tspan class="cls-28">J</tspan><tspan x="17.9" y="0">anuar 2018</tspan></text>
    <text class="cls-27" transform="translate(1122.98 400.35)"><tspan class="cls-29">F</tspan><tspan x="17.86" y="0">ebruar 2018</tspan></text>
    <text class="cls-27" transform="translate(474.54 577.35)">Marts 2018</text>
    <text class="cls-27" transform="translate(1134.69 749.65)">April 2018</text>
    <text class="cls-27" transform="translate(507.4 924.35)">Maj 2018</text>
    <text class="cls-27" transform="translate(1112.98 1099.55)">September 2018</text>
    <text class="cls-27" transform="translate(433.72 1274.65)">Oktober 2018</text>
    <text class="cls-27" transform="translate(1131.43 1449.65)">November 2018</text>
  </g>
</svg>
